<svg xmlns="http://www.w3.org/2000/svg" xmlns:xlink="http://www.w3.org/1999/xlink" width="500" zoomAndPan="magnify" viewBox="0 0 375 374.999991" height="500" preserveAspectRatio="xMidYMid meet" version="1.0"><defs><g></g></defs><g fill="#ff6200" fill-opacity="1"><g transform="translate(12.468754, 211.017217)"><g><path d="M 7.609375 0 L 37.601562 0 C 44.488281 0 49.289062 -1.585938 53.324219 -5.121094 C 57.355469 -8.742188 59.210938 -13.953125 59.210938 -20.160156 C 59.210938 -30.488281 54.773438 -35.425781 48.65625 -37.464844 L 48.65625 -38.144531 C 53.1875 -40.820312 55.996094 -45.167969 55.996094 -53.683594 C 55.996094 -58.984375 54.457031 -63.96875 50.832031 -67.050781 C 47.570312 -69.949219 42.132812 -71.941406 33.207031 -71.941406 L 7.609375 -71.941406 Z M 23.332031 -42.949219 L 23.332031 -58.53125 L 31.035156 -58.53125 C 34.386719 -58.53125 36.515625 -58.035156 37.828125 -56.992188 C 39.460938 -55.722656 39.914062 -53.683594 39.914062 -50.921875 C 39.914062 -45.167969 37.511719 -42.949219 31.167969 -42.949219 Z M 23.332031 -13.457031 L 23.332031 -30.808594 L 33.660156 -30.808594 C 39.957031 -30.808594 43.175781 -29.3125 43.175781 -22.289062 C 43.175781 -19.617188 42.632812 -17.398438 41.136719 -15.855469 C 39.730469 -14.363281 37.464844 -13.457031 33.84375 -13.457031 Z M 23.332031 -13.457031 "></path></g></g></g><g fill="#ff6200" fill-opacity="1"><g transform="translate(75.03004, 211.017217)"><g><path d="M 5.84375 -59.394531 L 21.566406 -59.394531 L 21.566406 -71.941406 L 5.84375 -71.941406 Z M 6.070312 0 L 21.339844 0 L 21.339844 -53.367188 L 6.070312 -53.367188 Z M 6.070312 0 "></path></g></g></g><g fill="#ff6200" fill-opacity="1"><g transform="translate(102.437414, 211.017217)"><g><path d="M 2.808594 0 L 40.820312 0 L 40.820312 -12.050781 L 21.566406 -12.050781 L 21.566406 -12.324219 L 39.957031 -42.042969 L 39.957031 -53.367188 L 3.398438 -53.367188 L 3.398438 -41.40625 L 22.605469 -41.40625 L 22.605469 -41.179688 L 2.808594 -10.691406 Z M 2.808594 0 "></path></g></g></g><g fill="#4d148c" fill-opacity="1"><g transform="translate(146.062495, 211.017217)"><g><path d="M 29.039062 1.539062 C 44.804688 1.539062 53.503906 -7.25 53.503906 -21.246094 C 53.503906 -37.785156 41.089844 -41.769531 34.203125 -43.945312 L 27.542969 -46.027344 C 23.785156 -47.296875 19.617188 -49.246094 19.617188 -53.867188 C 19.617188 -58.398438 23.242188 -60.617188 27.679688 -60.617188 C 33.296875 -60.617188 38.417969 -57.761719 42.449219 -53.457031 L 50.605469 -63.652344 C 44.125 -70.492188 36.105469 -73.664062 27.953125 -73.664062 C 14.859375 -73.664062 4.574219 -65.871094 4.574219 -52.324219 C 4.574219 -39.1875 14.179688 -33.570312 23.195312 -31.394531 L 29.675781 -29.492188 C 33.617188 -28.449219 37.917969 -26.773438 37.917969 -20.296875 C 37.917969 -14 33.75 -11.6875 28.675781 -11.6875 C 22.152344 -11.6875 15.449219 -15.402344 10.644531 -21.65625 L 1.992188 -11.144531 C 7.65625 -3.035156 17.757812 1.539062 29.039062 1.539062 Z M 29.039062 1.539062 "></path></g></g></g><g fill="#4d148c" fill-opacity="1"><g transform="translate(202.136714, 211.017217)"><g></g></g></g><g fill="#4d148c" fill-opacity="1"><g transform="translate(224.742135, 211.017217)"><g></g></g></g><g fill="#4d148c" fill-opacity="1"><g transform="translate(247.347557, 211.017217)"><g></g></g></g><g fill="#4d148c" fill-opacity="1"><g transform="translate(269.952978, 211.017217)"><g></g></g></g><g fill="#4d148c" fill-opacity="1"><g transform="translate(292.54686, 211.017217)"><g><path d="M 6.117188 0 L 21.382812 0 L 21.382812 -71.941406 L 6.117188 -71.941406 Z M 6.117188 0 "></path></g></g></g><g fill="#4d148c" fill-opacity="1"><g transform="translate(320.044837, 211.017217)"><g><path d="M 21.292969 1.085938 C 32.890625 1.085938 40.230469 -4.847656 40.230469 -15.71875 C 40.230469 -25.960938 33.296875 -29.765625 27.226562 -32.664062 C 22.605469 -34.839844 18.574219 -36.46875 18.574219 -40.09375 C 18.574219 -42.859375 20.25 -44.171875 22.789062 -44.171875 C 26.414062 -44.171875 30.171875 -41.859375 32.574219 -37.964844 L 39.367188 -46.300781 C 35.5625 -51.238281 29.992188 -54.410156 22.019531 -54.410156 C 11.460938 -54.410156 4.167969 -48.882812 4.167969 -38.464844 C 4.167969 -29.039062 9.605469 -25.414062 14.996094 -22.878906 C 19.980469 -20.613281 24.828125 -19.390625 24.828125 -14.722656 C 24.828125 -11.191406 22.699219 -9.875 19.707031 -9.875 C 15.449219 -9.875 11.644531 -12.277344 7.929688 -17.714844 L 1.40625 -7.25 C 8.019531 -1.042969 15.265625 1.085938 21.292969 1.085938 Z M 21.292969 1.085938 "></path></g></g></g><g fill="#4d148c" fill-opacity="1"><g transform="translate(270.85815, 209.936734)"><g><path d="M 4.070312 0 L 19.746094 0 L 19.746094 -57.21875 L 4.070312 -57.21875 Z M 4.070312 0 "></path></g></g></g><g fill="#4d148c" fill-opacity="1"><g transform="translate(204.21125, 210.255968)"><g><path d="M 3.621094 0 L 17.550781 0 L 17.550781 -9.128906 L 21.875 -13.933594 L 22.707031 -13.933594 L 27.128906 0 L 42.664062 0 L 31.484375 -23.507812 L 42.886719 -37.730469 L 26.328125 -37.730469 L 18.351562 -25.78125 L 17.550781 -25.78125 L 17.550781 -50.863281 L 3.621094 -50.863281 Z M 3.621094 0 "></path></g></g></g><g fill="#4d148c" fill-opacity="1"><g transform="translate(246.517983, 210.255968)"><g><path d="M 3.585938 -40.964844 L 17.519531 -40.964844 L 17.519531 -50.863281 L 3.585938 -50.863281 Z M 3.621094 0 L 17.550781 0 L 17.550781 -37.730469 L 3.621094 -37.730469 Z M 3.621094 0 "></path></g></g></g><g fill="#ff6200" fill-opacity="1"><g transform="translate(146.609072, 248.673528)"><g><path d="M 3.101562 0 L 9.503906 0 L 9.503906 -11.535156 L 18.75 -11.535156 L 18.75 -16.976562 L 9.503906 -16.976562 L 9.503906 -23.859375 L 20.132812 -23.859375 L 20.132812 -29.304688 L 3.101562 -29.304688 Z M 3.101562 0 "></path></g></g></g><g fill="#ff6200" fill-opacity="1"><g transform="translate(167.713441, 248.673528)"><g><path d="M 9.984375 0.460938 C 14.929688 0.460938 18.710938 -2.453125 18.710938 -10.796875 C 18.710938 -19.226562 14.929688 -22.164062 9.984375 -22.164062 C 5.039062 -22.164062 1.164062 -19.226562 1.164062 -10.796875 C 1.164062 -2.453125 5.039062 0.460938 9.984375 0.460938 Z M 10 -4.28125 C 8.5625 -4.28125 7.324219 -5.039062 7.324219 -10.796875 C 7.324219 -16.644531 8.5625 -17.421875 10 -17.421875 C 11.421875 -17.421875 12.621094 -16.589844 12.621094 -10.796875 C 12.621094 -5.09375 11.421875 -4.28125 10 -4.28125 Z M 10 -4.28125 "></path></g></g></g><g fill="#ff6200" fill-opacity="1"><g transform="translate(187.60025, 248.673528)"><g><path d="M 2.472656 0 L 8.710938 0 L 8.710938 -7.992188 C 8.710938 -13.046875 9.871094 -16.203125 14.410156 -16.203125 L 14.410156 -22.164062 C 11.257812 -22.164062 9.449219 -20.890625 8.710938 -17.957031 L 8.453125 -17.957031 L 8.453125 -21.738281 L 2.472656 -21.738281 Z M 2.472656 0 "></path></g></g></g><g fill="#ff6200" fill-opacity="1"><g transform="translate(202.118727, 248.673528)"><g></g></g></g><g fill="#ff6200" fill-opacity="1"><g transform="translate(211.324217, 248.673528)"><g><path d="M 12.972656 -16.367188 L 12.972656 -11.3125 L 17.734375 -11.3125 C 17.640625 -8.082031 16.996094 -4.890625 13.210938 -4.890625 C 9.261719 -4.890625 8.0625 -8.820312 8.0625 -14.597656 C 8.0625 -21.183594 9.171875 -24.449219 12.605469 -24.449219 C 14.910156 -24.449219 16.367188 -22.882812 16.921875 -19.414062 L 22.753906 -20.980469 C 21.609375 -27.035156 17.84375 -30.003906 12.605469 -30.003906 C 5.628906 -30.003906 1.605469 -25.152344 1.585938 -14.597656 C 1.605469 -4.648438 5.628906 0.703125 12.125 0.703125 C 14.191406 0.703125 16.460938 -0.664062 17.84375 -3.117188 L 18.085938 -3.117188 L 18.085938 0 L 23.4375 0 L 23.4375 -16.367188 Z M 12.972656 -16.367188 "></path></g></g></g><g fill="#ff6200" fill-opacity="1"><g transform="translate(236.948314, 248.673528)"><g><path d="M 9.984375 0.460938 C 14.929688 0.460938 18.710938 -2.453125 18.710938 -10.796875 C 18.710938 -19.226562 14.929688 -22.164062 9.984375 -22.164062 C 5.039062 -22.164062 1.164062 -19.226562 1.164062 -10.796875 C 1.164062 -2.453125 5.039062 0.460938 9.984375 0.460938 Z M 10 -4.28125 C 8.5625 -4.28125 7.324219 -5.039062 7.324219 -10.796875 C 7.324219 -16.644531 8.5625 -17.421875 10 -17.421875 C 11.421875 -17.421875 12.621094 -16.589844 12.621094 -10.796875 C 12.621094 -5.09375 11.421875 -4.28125 10 -4.28125 Z M 10 -4.28125 "></path></g></g></g><g fill="#ff6200" fill-opacity="1"><g transform="translate(256.835123, 248.673528)"><g><path d="M 9.984375 0.460938 C 14.929688 0.460938 18.710938 -2.453125 18.710938 -10.796875 C 18.710938 -19.226562 14.929688 -22.164062 9.984375 -22.164062 C 5.039062 -22.164062 1.164062 -19.226562 1.164062 -10.796875 C 1.164062 -2.453125 5.039062 0.460938 9.984375 0.460938 Z M 10 -4.28125 C 8.5625 -4.28125 7.324219 -5.039062 7.324219 -10.796875 C 7.324219 -16.644531 8.5625 -17.421875 10 -17.421875 C 11.421875 -17.421875 12.621094 -16.589844 12.621094 -10.796875 C 12.621094 -5.09375 11.421875 -4.28125 10 -4.28125 Z M 10 -4.28125 "></path></g></g></g><g fill="#ff6200" fill-opacity="1"><g transform="translate(276.721932, 248.673528)"><g><path d="M 8.175781 0.460938 C 10.8125 0.460938 12.125 -0.902344 12.714844 -2.269531 L 12.789062 -2.269531 L 12.789062 0 L 18.859375 0 L 18.859375 -29.304688 L 12.640625 -29.304688 L 12.640625 -19.46875 L 12.566406 -19.46875 C 11.808594 -20.964844 10.425781 -22.164062 8.0625 -22.164062 C 4.207031 -22.164062 1.367188 -18.710938 1.367188 -10.867188 C 1.367188 -3.027344 4.226562 0.460938 8.175781 0.460938 Z M 10.371094 -4.28125 C 8.527344 -4.28125 7.695312 -6.035156 7.695312 -10.925781 C 7.695312 -15.59375 8.527344 -17.402344 10.371094 -17.402344 C 12.179688 -17.402344 13.007812 -15.28125 13.007812 -10.925781 C 13.007812 -6.347656 12.179688 -4.28125 10.371094 -4.28125 Z M 10.371094 -4.28125 "></path></g></g></g><g fill="#ff6200" fill-opacity="1"><g transform="translate(298.066123, 248.673528)"><g></g></g></g><g fill="#ff6200" fill-opacity="1"><g transform="translate(307.271613, 248.673528)"><g><path d="M 3.101562 0 L 9.503906 0 L 9.503906 -29.304688 L 3.101562 -29.304688 Z M 3.101562 0 "></path></g></g></g><g fill="#ff6200" fill-opacity="1"><g transform="translate(319.871511, 248.673528)"><g><path d="M 2.472656 0 L 8.710938 0 L 8.710938 -13.210938 C 8.710938 -15.796875 9.320312 -17.402344 11.144531 -17.402344 C 12.804688 -17.402344 13.230469 -16.074219 13.230469 -14.265625 L 13.230469 0 L 19.414062 0 L 19.414062 -15.222656 C 19.414062 -19.875 17.105469 -22.164062 13.875 -22.164062 C 11.386719 -22.164062 9.652344 -20.742188 8.785156 -19.15625 L 8.597656 -19.15625 L 8.597656 -21.738281 L 2.472656 -21.738281 Z M 2.472656 0 "></path></g></g></g><g fill="#ff6200" fill-opacity="1"><g transform="translate(341.437077, 248.673528)"><g><path d="M 9.929688 0.554688 C 13.839844 0.554688 16.976562 -1.570312 17.917969 -6.21875 L 13.101562 -7.695312 C 12.417969 -4.707031 11.386719 -4.207031 10.1875 -4.207031 C 8.765625 -4.207031 7.269531 -5.515625 7.269531 -10.796875 C 7.269531 -16.074219 8.765625 -17.421875 10.1875 -17.421875 C 11.515625 -17.421875 12.605469 -16.550781 13.007812 -13.5625 L 17.957031 -15.222656 C 17.015625 -20.003906 13.875 -22.164062 9.929688 -22.164062 C 4.980469 -22.164062 1.105469 -18.65625 1.105469 -10.796875 C 1.105469 -2.953125 4.980469 0.554688 9.929688 0.554688 Z M 9.929688 0.554688 "></path></g></g></g><g fill="#ff6200" fill-opacity="1"><g transform="translate(357.673457, 248.403514)"><g><path d="M 1.605469 0 L 5.332031 0 L 5.332031 -3.160156 L 1.605469 -3.160156 Z M 1.605469 0 "></path></g></g></g></svg>