<svg version="1.1" id="Layer_1" xmlns="http://www.w3.org/2000/svg" xmlns:xlink="http://www.w3.org/1999/xlink" x="0px" y="0px"
	 width="100%" viewBox="0 0 3335 3334" enable-background="new 0 0 3335 3334" xml:space="preserve">
<path fill="#0000FF" opacity="1.000000" stroke="none" 
	d="
M1534.000000,3336.000000 
	C1022.666748,3336.000000 512.333435,3336.000000 2.000137,3336.000000 
	C2.000091,2224.666748 2.000091,1113.333740 2.000046,2.000435 
	C1113.999634,2.000290 2225.999268,2.000290 3337.999268,2.000145 
	C3337.999512,1113.332886 3337.999512,2224.665771 3337.999756,3335.999268 
	C2737.000000,3336.000000 2136.000000,3336.000000 1534.000000,3336.000000 
M1408.476440,1872.879517 
	C1463.643311,1872.284058 1510.398560,1851.877441 1548.272461,1812.034912 
	C1584.935059,1773.466553 1601.454224,1726.739624 1601.427002,1673.840210 
	C1601.402710,1626.522949 1601.240234,1579.204956 1601.472168,1531.888794 
	C1601.780640,1468.971313 1645.371948,1412.755859 1706.033325,1396.072388 
	C1728.284424,1389.952759 1750.901489,1390.965210 1773.259277,1392.926636 
	C1748.762207,1451.421387 1740.627563,1512.067749 1749.672852,1574.879883 
	C1762.005249,1660.517822 1800.955811,1731.927124 1866.436523,1788.243042 
	C1968.883301,1876.351196 2116.779785,1898.486572 2243.771973,1845.713989 
	C2397.092041,1782.000732 2484.433350,1620.164551 2451.460449,1459.124146 
	C2414.382324,1278.033691 2244.037354,1160.851685 2057.112061,1182.910522 
	C2034.226685,1185.611206 2011.906494,1190.866821 1987.981567,1196.718872 
	C1891.672974,1196.674561 1795.363525,1196.348633 1699.056274,1196.683472 
	C1633.293701,1196.911987 1574.012573,1217.174194 1521.702881,1257.154663 
	C1511.414551,1265.018066 1501.886597,1273.876099 1490.773071,1281.368896 
	C1461.610840,1252.947266 1428.448364,1230.355103 1391.250732,1213.843018 
	C1309.574585,1177.586914 1225.107910,1172.230347 1139.213013,1194.352783 
	C986.825317,1233.600708 885.652588,1361.401489 884.412476,1517.762817 
	C882.739441,1728.713745 883.993896,1939.688110 884.025452,2150.652344 
	C884.025818,2153.155273 884.469238,2155.658203 884.784973,2158.998047 
	C894.545410,2158.081543 903.531555,2157.656738 912.385498,2156.342041 
	C1004.193726,2142.708008 1072.098267,2063.887207 1072.165039,1971.014160 
	C1072.199829,1922.688965 1072.171509,1874.363892 1072.171753,1826.038696 
	C1072.171753,1822.842651 1072.171753,1819.646606 1072.171753,1814.950562 
	C1076.270630,1817.567749 1079.014038,1819.201538 1081.636353,1821.011108 
	C1121.498779,1848.519653 1165.170776,1866.182007 1213.338257,1872.573486 
	C1233.582275,1875.259766 1253.809570,1874.952637 1274.151123,1874.479858 
	C1307.129395,1873.713257 1340.130493,1873.977661 1373.119995,1873.621216 
	C1384.417236,1873.499023 1395.708374,1872.819946 1408.476440,1872.879517 
z"/>
<path fill="#FEFEFF" opacity="1.000000" stroke="none" 
	d="
M1989.774170,1197.079590 
	C2011.906494,1190.866821 2034.226685,1185.611206 2057.112061,1182.910522 
	C2244.037354,1160.851685 2414.382324,1278.033691 2451.460449,1459.124146 
	C2484.433350,1620.164551 2397.092041,1782.000732 2243.771973,1845.713989 
	C2116.779785,1898.486572 1968.883301,1876.351196 1866.436523,1788.243042 
	C1800.955811,1731.927124 1762.005249,1660.517822 1749.672852,1574.879883 
	C1740.627563,1512.067749 1748.762207,1451.421387 1773.727661,1391.627441 
	C1799.713257,1333.209229 1837.485840,1285.958496 1887.962646,1248.909546 
	C1919.076782,1226.072266 1953.354980,1209.480469 1989.774170,1197.079590 
M2259.782227,1469.499634 
	C2234.581055,1405.077759 2188.033447,1367.234741 2119.103516,1359.365356 
	C2068.767090,1353.618774 2023.704224,1367.914551 1987.084839,1403.399414 
	C1942.858887,1446.255127 1926.903198,1499.397461 1937.812500,1559.522339 
	C1961.332886,1689.149170 2105.238525,1733.953491 2200.532471,1665.517700 
	C2260.482422,1622.464722 2284.387939,1543.776978 2259.782227,1469.499634 
z"/>
<path fill="#FEFEFF" opacity="1.000000" stroke="none" 
	d="
M1407.002319,1872.395264 
	C1395.708374,1872.819946 1384.417236,1873.499023 1373.119995,1873.621216 
	C1340.130493,1873.977661 1307.129395,1873.713257 1274.151123,1874.479858 
	C1253.809570,1874.952637 1233.582275,1875.259766 1213.338257,1872.573486 
	C1165.170776,1866.182007 1121.498779,1848.519653 1081.636353,1821.011108 
	C1079.014038,1819.201538 1076.270630,1817.567749 1072.171753,1814.950562 
	C1072.171753,1819.646606 1072.171753,1822.842651 1072.171753,1826.038696 
	C1072.171509,1874.363892 1072.199829,1922.688965 1072.165039,1971.014160 
	C1072.098267,2063.887207 1004.193726,2142.708008 912.385498,2156.342041 
	C903.531555,2157.656738 894.545410,2158.081543 884.784973,2158.998047 
	C884.469238,2155.658203 884.025818,2153.155273 884.025452,2150.652344 
	C883.993896,1939.688110 882.739441,1728.713745 884.412476,1517.762817 
	C885.652588,1361.401489 986.825317,1233.600708 1139.213013,1194.352783 
	C1225.107910,1172.230347 1309.574585,1177.586914 1391.250732,1213.843018 
	C1428.448364,1230.355103 1461.610840,1252.947266 1491.037842,1282.479736 
	C1490.187012,1284.821045 1489.087524,1286.066772 1487.953369,1287.280151 
	C1438.649048,1340.032104 1411.321899,1402.242065 1407.473755,1474.518555 
	C1406.802856,1487.117920 1406.456177,1499.734619 1405.728027,1511.215820 
	C1404.850708,1505.810791 1404.338623,1501.507935 1403.540039,1497.259155 
	C1379.864014,1371.293213 1247.562256,1328.834473 1154.903442,1381.539795 
	C1094.145264,1416.099854 1062.958008,1486.026245 1074.659058,1556.446533 
	C1089.720093,1647.087646 1167.662964,1704.284912 1254.801147,1696.473389 
	C1321.743286,1690.472412 1378.192993,1645.502441 1397.928345,1580.391846 
	C1401.578857,1568.348267 1403.305664,1555.721680 1406.061279,1544.586670 
	C1406.450317,1552.457153 1406.910767,1559.104858 1406.914917,1565.752808 
	C1406.979126,1667.966919 1406.983765,1770.181152 1407.002319,1872.395264 
z"/>
<path fill="#05FE88" opacity="1.000000" stroke="none" 
	d="
M1407.739380,1872.637451 
	C1406.983765,1770.181152 1406.979126,1667.966919 1406.914917,1565.752808 
	C1406.910767,1559.104858 1406.450317,1552.457153 1405.990723,1544.091309 
	C1405.839355,1532.363159 1405.899536,1522.353271 1405.959717,1512.343262 
	C1406.456177,1499.734619 1406.802856,1487.117920 1407.473755,1474.518555 
	C1411.321899,1402.242065 1438.649048,1340.032104 1487.953369,1287.280151 
	C1489.087524,1286.066772 1490.187012,1284.821045 1491.655396,1282.932983 
	C1501.886597,1273.876099 1511.414551,1265.018066 1521.702881,1257.154663 
	C1574.012573,1217.174194 1633.293701,1196.911987 1699.056274,1196.683472 
	C1795.363525,1196.348633 1891.672974,1196.674561 1988.877930,1196.899170 
	C1953.354980,1209.480469 1919.076782,1226.072266 1887.962646,1248.909546 
	C1837.485840,1285.958496 1799.713257,1333.209229 1773.865723,1390.803955 
	C1750.901489,1390.965210 1728.284424,1389.952759 1706.033325,1396.072388 
	C1645.371948,1412.755859 1601.780640,1468.971313 1601.472168,1531.888794 
	C1601.240234,1579.204956 1601.402710,1626.522949 1601.427002,1673.840210 
	C1601.454224,1726.739624 1584.935059,1773.466553 1548.272461,1812.034912 
	C1510.398560,1851.877441 1463.643311,1872.284058 1407.739380,1872.637451 
z"/>
<path fill="#0000FF" opacity="1.000000" stroke="none" 
	d="
M2259.994873,1470.260742 
	C2284.387939,1543.776978 2260.482422,1622.464722 2200.532471,1665.517700 
	C2105.238525,1733.953491 1961.332886,1689.149170 1937.812500,1559.522339 
	C1926.903198,1499.397461 1942.858887,1446.255127 1987.084839,1403.399414 
	C2023.704224,1367.914551 2068.767090,1353.618774 2119.103516,1359.365356 
	C2188.033447,1367.234741 2234.581055,1405.077759 2259.994873,1470.260742 
z"/>
<path fill="#0000FF" opacity="1.000000" stroke="none" 
	d="
M1405.728027,1511.215820 
	C1405.899536,1522.353271 1405.839355,1532.363159 1405.849731,1542.868652 
	C1403.305664,1555.721680 1401.578857,1568.348267 1397.928345,1580.391846 
	C1378.192993,1645.502441 1321.743286,1690.472412 1254.801147,1696.473389 
	C1167.662964,1704.284912 1089.720093,1647.087646 1074.659058,1556.446533 
	C1062.958008,1486.026245 1094.145264,1416.099854 1154.903442,1381.539795 
	C1247.562256,1328.834473 1379.864014,1371.293213 1403.540039,1497.259155 
	C1404.338623,1501.507935 1404.850708,1505.810791 1405.728027,1511.215820 
z"/>
</svg>